<svg xmlns="http://www.w3.org/2000/svg" xmlns:xlink="http://www.w3.org/1999/xlink" width="220" height="220" viewBox="0 0 220 220">
  <defs>
    <filter id="Bg" x="0" y="0" width="220" height="220" filterUnits="userSpaceOnUse">
      <feOffset dy="20" input="SourceAlpha"/>
      <feGaussianBlur stdDeviation="20" result="blur"/>
      <feFlood flood-color="#cedae4"/>
      <feComposite operator="in" in2="blur"/>
      <feComposite in="SourceGraphic"/>
    </filter>
    <linearGradient id="linear-gradient" x1="1" x2="0" y2="1" gradientUnits="objectBoundingBox">
      <stop offset="0" stop-color="#7cd1f5"/>
      <stop offset="1" stop-color="#1c80df"/>
    </linearGradient>
  </defs>
  <g id="timegroup" transform="translate(39 19)">
    <g id="Circles">
      <rect id="Rectangle_7" data-name="Rectangle 7" width="8" height="8" rx="4" transform="translate(0 25)" fill="#1c80df"/>
      <rect id="Rectangle_7-2" data-name="Rectangle 7" width="8" height="8" rx="4" transform="translate(25 40)" fill="#1c80df"/>
      <rect id="Rectangle_7-3" data-name="Rectangle 7" width="14" height="14" rx="7" transform="translate(105 90)" fill="#1c80df"/>
      <rect id="Rectangle_7-4" data-name="Rectangle 7" width="8" height="8" rx="4" transform="translate(125 50)" fill="#1c80df"/>
      <rect id="Rectangle_7-5" data-name="Rectangle 7" width="4" height="4" rx="2" transform="translate(125 30)" fill="#1c80df"/>
      <rect id="Rectangle_7-6" data-name="Rectangle 7" width="4" height="4" rx="2" transform="translate(35 20)" fill="#1c80df"/>
      <rect id="Rectangle_7-7" data-name="Rectangle 7" width="4" height="4" rx="2" transform="translate(75)" fill="#1c80df"/>
      <rect id="Rectangle_7-8" data-name="Rectangle 7" width="4" height="4" rx="2" transform="translate(15 90)" fill="#1c80df"/>
      <rect id="Rectangle_7-9" data-name="Rectangle 7" width="4" height="4" rx="2" transform="translate(75 140)" fill="#1c80df"/>
    </g>
    <g id="Bg-2" data-name="Bg" transform="translate(21 21)">
      <g transform="matrix(1, 0, 0, 1, -60, -40)" filter="url(#Bg)">
        <rect id="Bg-3" data-name="Bg" width="100" height="100" rx="50" transform="translate(60 40)" fill="#fff"/>
      </g>
    </g>
    <g id="Time_Icon" data-name="Time Icon" transform="translate(55 53)">
      <path id="Shape" d="M0,19.6a16.008,16.008,0,0,1,14.69-16V2.523H11.733a1.241,1.241,0,0,1-1.249-1.261A1.241,1.241,0,0,1,11.733,0h8.229a1.241,1.241,0,0,1,1.249,1.262,1.241,1.241,0,0,1-1.249,1.261H17.188V3.6a15.654,15.654,0,0,1,8.138,3.046L26.7,5.261l-.579-.584a1.271,1.271,0,0,1,0-1.785,1.242,1.242,0,0,1,1.768,0l2.9,2.923a1.27,1.27,0,0,1,0,1.784,1.241,1.241,0,0,1-1.768,0l-.579-.584-1.25,1.262A16.089,16.089,0,0,1,15.908,35.662,16,16,0,0,1,0,19.6Z" transform="translate(0.091 0.154)" fill="url(#linear-gradient)"/>
      <path id="Shape-2" data-name="Shape" d="M1.25,10.277H6.583a1.262,1.262,0,0,0,0-2.523H2.5V1.262A1.242,1.242,0,0,0,1.25,0,1.242,1.242,0,0,0,0,1.262V9.046a1.235,1.235,0,0,0,1.25,1.231Z" transform="translate(14.75 10.523)" fill="#5cb6ed"/>
    </g>
  </g>
</svg>
