<svg xmlns="http://www.w3.org/2000/svg" width="31.817" height="35.662" viewBox="0 0 31.817 35.662">
  <g id="Time_Icon" data-name="Time Icon" transform="translate(-0.091 -0.154)">
    <path id="Shape" d="M0,19.6a16.008,16.008,0,0,1,14.69-16V2.523H11.733a1.241,1.241,0,0,1-1.249-1.261A1.241,1.241,0,0,1,11.733,0h8.229a1.241,1.241,0,0,1,1.249,1.262,1.241,1.241,0,0,1-1.249,1.261H17.188V3.6a15.654,15.654,0,0,1,8.138,3.046L26.7,5.261l-.579-.584a1.271,1.271,0,0,1,0-1.785,1.242,1.242,0,0,1,1.768,0l2.9,2.923a1.27,1.27,0,0,1,0,1.784,1.241,1.241,0,0,1-1.768,0l-.579-.584-1.25,1.262A16.089,16.089,0,0,1,15.908,35.662,16,16,0,0,1,0,19.6Z" transform="translate(0.091 0.154)" fill="#c4cfda"/>
    <path id="Shape-2" data-name="Shape" d="M1.25,10.277H6.583a1.262,1.262,0,0,0,0-2.523H2.5V1.262A1.242,1.242,0,0,0,1.25,0,1.242,1.242,0,0,0,0,1.262V9.046a1.235,1.235,0,0,0,1.25,1.231Z" transform="translate(14.75 10.523)" fill="#c4cfda"/>
  </g>
</svg>
